<?xml version="1.0" encoding="UTF-8"?><svg xmlns="http://www.w3.org/2000/svg" viewBox="0 0 128 32"><defs><style>path, polyline, line, circle, ellipse, rect { stroke: #000000; fill: none; stroke-width: 1; }</style></defs><circle id="el_0" cx="83" cy="9" r="1.0" /><path id="el_1" d="M 83 14 l 0 11" /><path id="el_2" d="M 3 15 L 16 15 A 6.58 6.58 0 0 0 3 15 A 8.57 8.57 0 0 0 16 22" /><path id="el_3" d="M 18 12 l 10 11" /><path id="el_4" d="M 18 23 l 10 -11" /><path id="el_5" d="M 34 9 l 0 15" /><path id="el_6" d="M 34 15 l 3 0" /><path id="el_7" d="M 41 10 A 4.64 4.64 0 0 1 49 10 A 4.06 4.06 0 0 1 49 17 A 4.06 4.06 0 0 1 49 24 A 4.64 4.64 0 0 1 41 24" /><path id="el_8" d="M 42 17 l 7 0" /><path id="el_9" d="M 58 15 A 5.52 5.52 0 0 1 66 15 L 66 25" /><path id="el_10" d="M 58 11 l 0 14" /><path id="el_11" d="M 78 12 A 4.23 4.23 0 0 0 70 12 L 77 23 A 3.70 3.70 0 0 1 70 23" /><path id="el_12" d="M 89 12 L 89 26 A 4.14 4.14 0 0 0 95 26 L 95 12 A 4.14 4.14 0 0 0 89 12 L 95 26" /><use id="el_13" href="#el_9" transform="translate(41, 0)" /><use id="el_14" href="#el_10" transform="translate(41, 0)" /><use id="el_15" href="#el_11" transform="translate(40, 0)" /><path id="el_16" d="M 122 7 A 1.82 1.82 0 0 1 124 10 L 124 15 L 127 18 L 124 21 L 124 26 A 1.82 1.82 0 0 1 122 29" /><path id="el_17" d="M 0 28 l 6 0" /></svg>